<?xml version="1.0" encoding="UTF-8"?>
<svg id="Capa_1" data-name="Capa 1" xmlns="http://www.w3.org/2000/svg" viewBox="0 0 1503.26 428.28">
  <defs>
    <style>
      .cls-1 {
        isolation: isolate;
      }

      .cls-2 {
        fill: #009fff;
      }

      .cls-3 {
        fill: #1cc691;
      }
    </style>
  </defs>
  <path class="cls-2" d="M737.44,67.69c-19.65,0-39.93,8.29-48.99,21.11v-16.61h-58.5v230.02h58.5v-84.09c9.06,12.85,29.37,21.11,48.99,21.11,45.62,0,76.19-41.48,76.19-86s-30.56-85.52-76.19-85.52h0v-.03ZM722.02,191.31c-20.01,0-33.61-15.42-33.61-37.36s13.21-38.47,33.61-38.47c19.26,0,33.25,16.25,33.25,38.47s-14.04,37.36-33.25,37.36ZM555.51,67.69c-27.16,0-43.33,12.05-54.69,26.81-9.45-16.25-24.15-26.81-49.77-26.81-19.17,0-33.96,5.7-44.91,21.5v-16.97h-58.5v162.57h58.5v-85.52c0-18.79,6.41-32.38,24.87-32.38s21.11,12.49,21.11,34.32v83.7h58.44v-85.52c0-18.85,6.41-32.38,24.87-32.38s21.11,12.49,21.11,34.32v83.7h58.44v-97.83c0-38.94-15.86-69.39-59.55-69.39v-.09l.06-.03ZM246.66,67.69c-46.73,0-87.46,37.36-87.46,85.52s39.93,86,87.84,86,87.46-38.11,87.46-86.35-40.28-85.19-87.84-85.19h0v.03ZM246.98,192.86c-20.4,0-30.92-20.72-30.92-39.57s10.56-39.18,30.56-39.18c21.11,0,30.92,20.72,30.92,38.82s-10.17,39.93-30.56,39.93h0ZM89.43,193.25c-21.11,0-35.07-19.65-35.07-39.18,0-23.05,14.31-39.93,35.07-39.93,12.05,0,23.05,4.86,32.38,15.03l33.61-31.31c-17.35-20.72-38.47-30.21-66.02-30.21C37.36,67.66,0,106.84,0,154.01s38.11,85.19,89.4,85.19c31.67,0,51.7-10.56,71.21-35.07l-39.18-27.52c-9.01,10.56-16.97,16.61-32.05,16.61h.03l.03.03ZM1265.31,67.69c-19.26,0-36.17,7.19-46.73,21.5v-16.97h-58.44v162.57h58.44v-85.52c0-20.01,9.84-32.38,26.81-32.38s23.05,12.49,23.05,34.32v83.7h58.44v-97.77c-.09-38.94-17.8-69.39-61.6-69.39h0l.03-.06ZM1064.57,67.69c-29.37,0-56.57,4.53-78,16.61l18.07,35.07c16.97-8.74,35.42-13.93,58.12-13.93,16.61,0,24.15,3.76,24.15,15.03v5.7c-52.78,2.27-115.01,12.05-115.01,62.59,0,30.92,27.52,50.48,58.83,50.48,28.27,0,38.47-4.47,56.18-16.97v12.49h58.44v-103.35c-.09-46.37-26.9-63.69-80.78-63.69h0v-.03ZM1086.79,186.07c-9.45,8.29-19.26,11.66-33.96,11.66-9.45,0-18.79-5.7-18.79-15.03,0-18.07,27.91-23.77,52.78-23.77v27.16h-.03v-.03ZM826.83,234.73h58.44V0h-58.44v234.73ZM1424.96,190.03l78.3-117.84h-159.53v45.23h59.58c5.31,0,9.84-.39,9.84-.39,0,0-3.76,4.14-6.8,8.62l-73.53,108.96h160.99v-45.23h-57.85c-3.31.09-8.17.39-11,.66h-.03.03ZM901.47,72.91v161.7h58.44V72.7c-9.18,3.22-18.99,5.04-29.01,5.04s-20.22-1.76-29.46-4.86h.03v.03Z"/>
  <g>
    <path class="cls-3" d="M1114.07,379.29c-6.56,7.1-13.03,11.57-16.49,13.42-3.37,1.82-7.13,2.77-10.97,2.74-4.29,0-8.02-1.22-11.21-3.73-3.1-2.45-5.43-5.78-6.56-9.54-1.22-3.91-1.82-9.42-1.82-16.55v-32.2c0-.81,0-4.32-2.21-5.43-.57-.24-1.16-.33-1.79-.39-.66-.09-1.13-.6-1.13-1.28v-3.73c0-.72.57-1.28,1.25-1.28h14.13c2.06,0,3.7,1.64,3.7,3.7v19.14h0v23.71c0,7.13,1.25,11.81,3.73,14.01,2.5,2.24,5.52,3.34,9.01,3.34,2.39,0,5.13-.75,8.17-2.24,3.04-1.52,8.08-4.35,12.26-8.59v-3.61h0v-37.33c.03-.81.03-4.32-2.12-5.43-.57-.24-1.13-.33-1.76-.39-.66-.09-1.13-.66-1.13-1.28v-3.73c0-.72.54-1.28,1.25-1.28h13.9c2.03,0,3.64,1.64,3.64,3.64v54.36h0v1.91c0,.81-.09,4.68,2.09,5.78.57.24,1.13.33,1.76.39.66.09,1.13.66,1.13,1.28v3.76c0,.33-.12.69-.33.92-.24.24-.57.39-.92.39h-13.98c-2.03,0-3.64-1.64-3.64-3.64h0v-6.95h0v-3.79h.09l-.03-.12ZM1142.19,309.36v-9.6c0-.75,0-4.17-2.12-5.19-.27-.12-.57-.24-.83-.3-.57-.15-.98-.66-.98-1.25v-3.61c0-.33.12-.69.33-.92.24-.24.57-.39.92-.39h12.52c1.94,0,3.52,1.58,3.52,3.52v42.07c7.19-9.87,14.94-14.76,23.26-14.76,7.6,0,14.25,3.19,19.95,9.66,5.67,6.41,8.5,15.18,8.5,26.36,0,13-4.35,23.47-13.09,31.4-7.48,6.83-15.86,10.23-25.11,10.23-4.32,0-8.71-.75-13.15-2.33-4.06-1.43-7.96-3.34-11.63-5.67-1.25-.81-2.03-2.18-2.03-3.61v-75.62h-.09.03ZM1156.8,383.82c2.36,2.09,4.77,3.73,7.31,4.86,2.92,1.37,5.96,2.06,9.04,2.06,4.89,0,9.48-2.65,13.72-7.96,4.26-5.31,6.35-13.06,6.35-23.29,0-9.39-2.12-16.61-6.35-21.62-4.26-5.04-9.04-7.54-14.43-7.54-2.86,0-5.73.72-8.59,2.18-1.91.95-4.26,2.68-7.07,5.28-.75.72-1.22,1.7-1.22,2.74v40.55c0,1.07.45,2.09,1.25,2.77v-.03ZM1302.43,371.39v-31.88c6.35-6.8,15.51-10.23,21.92-10.23,4.14,0,7.1,1.49,8.86,4.44,1.76,2.95,2.62,7.72,2.62,14.28v23.41h0v18.64c0,1.94,1.61,3.52,3.52,3.52h12.94c.72,0,1.28-.6,1.28-1.34v-3.61c0-.66-.51-1.16-1.13-1.28-.39-.03-.75-.15-1.13-.3-2.12-1.07-2.12-4.47-2.12-5.28v-9.69h0v-25.38c0-6.5-.6-11.33-1.79-14.46-1.7-4.53-4.03-7.75-6.95-9.72-2.92-1.97-6.38-2.95-10.41-2.95-7.39,0-17.92,4.47-26,13.48l-.09.09c-.24.27-.6.33-.95.24s-.54-.45-.54-.81v-2.86h0v-5.16c0-.92-.39-1.82-1.01-2.47-.66-.66-1.55-1.01-2.47-1.01h-12.31c-.33,0-.69.15-.92.39s-.39.57-.39.92v3.61c0,.57.42,1.1.98,1.25.27.09.54.15.81.27,2.09,1.07,2.09,4.44,2.09,5.19v9.57h0c-.03,2.62-.12,5.55-.12,8.44v26.75h0v4.2c0,.81,0,4.2-2.12,5.25-.51.18-1.01.33-1.55.39-.66.09-1.13.66-1.13,1.28v3.52c0,.72.54,1.28,1.25,1.34h13.36c1.94,0,3.52-1.58,3.52-3.52v-18.58h0v.09-.03ZM1489.45,375.77v5.81c.15,2.24.83,3.64,2.09,4.26.3.15.66.27.98.3.6.12,1.01.66,1.01,1.25v3.61c0,.33-.12.69-.33.92-.24.24-.57.39-.92.39h-12.64c-1.94,0-3.52-1.58-3.52-3.52v-6.89c-7.6,5.93-12.37,9.33-14.31,10.26-2.92,1.37-6.08,2.06-9.3,2.06-5.13,0-9.33-1.79-12.67-5.28-3.34-3.52-4.98-8.17-4.98-13.9,0-3.64.81-6.8,2.45-9.45,2.21-3.7,5.55-7.9,11.54-10.41,5.99-2.5,11.12-3.07,27.34-6.77v-6.56c-.09-6.98-1.16-14.04-12.73-13.36-7.96.45-15.71,3.1-22.3,7.66-.39.27-.92.3-1.34.09s-.69-.69-.69-1.13v-4.26c0-2.24.42-3.73,1.28-4.41,4.77-3.85,16.55-8.44,28.03-7.66,12.73.86,17.32,6.2,19.65,14.28.69,2.47,1.43,4.29,1.43,11.51v22.24c0,3.1,0,6.11-.03,8.98h-.03v-.03ZM1476.12,353.97c-10.02,2.06-15.8,3.34-17.32,3.85-5.58,1.85-10.02,4.03-10.38,13.36-.15,3.91,1.16,7.13,3.49,9.72s5.01,3.88,8.02,3.88c3.76,0,8.59-2.86,14.52-7.39,1.07-.81,1.67-2.06,1.67-3.37v-20.01h0v-.03ZM1422.9,381.41h0c0,.81,0,4.11,2.06,5.13.24.12.51.24.83.3.57.15.98.66.98,1.25v3.46c0,.33-.12.69-.33.92-.24.24-.57.39-.92.39h-12.08c-1.91,0-3.43-1.52-3.43-3.43v-3.34h-.03c-3.49,3.76-6.95,6.47-10.29,8.08-3.34,1.61-6.98,2.45-10.85,2.45-7.87,0-14.7-3.34-20.57-10.08-5.84-6.71-8.8-15.36-8.8-25.85s3.28-20.16,9.75-28.89,14.85-13.09,25.08-13.09c6.35,0,11.57,2.06,15.71,6.14v-25.67c0-.81,0-4.17-2.06-5.25-.24-.12-.45-.18-.72-.27-.57-.15-.95-.69-.95-1.25v-3.64c0-.72.57-1.28,1.28-1.34h11.96c1.91,0,3.43,1.52,3.43,3.43v90.56h-.06ZM1400.83,330.09c-2.59-1.52-5.13-2.27-7.6-2.27-4.59,0-8.8,1.97-12.58,5.84-4.14,4.26-6.92,9.99-6.92,20.66s2.33,19.05,6.92,24.81c4.59,5.75,9.72,8.62,15.39,8.62,4.03,0,7.96-1.76,11.78-5.25,1.34-1.22,2.06-2.89,2.06-4.68v-31.91c0-6.53-3.46-12.58-9.06-15.86h.03v.03ZM1222.1,386.95c-5.84-6.65-8.92-17.32-8.92-27.88,0-11.15,3.46-21.35,9.75-28.72,6.53-7.66,15.51-11.75,25.91-11.75,8.8,0,15.54,3.01,19.95,8.92,4.14,5.55,6.23,13.48,6.23,23.56,0,1.22-.09,2.92-.24,5.13-.09,1.37-1.22,2.45-2.59,2.45h-45.12c-.18,0-.39.09-.54.24s-.24.33-.24.54c.15,8.29,2.77,15.3,7.6,20.28,4.74,4.89,11.24,7.48,18.85,7.48,5.67,0,13.03-1.49,18.76-3.22.54-.15,1.1,0,1.49.33.39.39.57.95.42,1.49l-.75,2.95c-.27,1.07-1.01,1.97-2.03,2.47-5.67,2.74-14.1,5.4-22.75,5.4-10.53,0-19.59-2.59-25.79-9.6h0v-.06ZM1225.86,349.05c0,.18.09.39.24.54s.33.24.54.24h36.23c.39,0,.72-.27.75-.66.42-3.79.57-10.68-5.1-16.55-2.77-2.89-6.14-4.35-12.61-4.35-11.27,0-18.79,11.15-20.07,20.78h.03Z"/>
    <path class="cls-3" d="M1335.86,371.8v9.75c0,.81,0,4.26-2.09,5.31-.09,0-.15.09-.24.12-1.49.51-2.45,1.91-2.47,3.43,0,.81.3,1.58.86,2.18s1.34.92,2.18.92h11.54c.95,0,1.82-.39,2.47-1.01.66-.66,1.01-1.55,1.01-2.47v-18.88l-13.27.72h-.03l.03-.06ZM1302.43,371.8v9.75c0,.81,0,4.26,2.09,5.31.09,0,.15.09.27.12,1.49.54,2.45,1.91,2.45,3.43,0,.81-.3,1.58-.86,2.18s-1.34.92-2.12.92h-11.54c-1.94,0-3.49-1.55-3.49-3.49v-18.88l13.27.72h0l-.06-.06ZM1045.7,327.05v56.65c0,1.49.83,2.86,2.21,3.49,1.34.66,2.18,2.03,2.18,3.49v1.07c0,1.22-.98,2.21-2.18,2.21h-19.02c-1.16,0-2.18-.95-2.18-2.18v-1.1c0-1.49.83-2.86,2.18-3.49,1.34-.66,2.18-2.03,2.18-3.46v-54.72c0-.75-.6-1.4-1.4-1.4-.39,0-.72-.15-.98-.42s-.42-.6-.42-.98v-1.79c0-1.79,1.43-3.19,3.19-3.19h8.44c3.22,0,5.84,2.62,5.84,5.84h0l-.03-.03Z"/>
    <path class="cls-3" d="M1038.36,306.89c5.01,0,9.06-4.06,9.06-9.06s-4.06-9.06-9.06-9.06-9.06,4.06-9.06,9.06,4.06,9.06,9.06,9.06Z"/>
    <g class="cls-1">
      <path class="cls-2" d="M839.07,293.39h-10.74c.15-2.54,1.19-5.67,2.69-7.91,3.58-1.19,8.51-2.09,13.43-2.09,2.69,0,5.37.3,7.61.9v28.8c0,5.82-.3,11.64-.75,17.46h1.49c2.39-6.27,9.25-11.49,21.19-11.49,12.98,0,27.75,8.95,27.75,35.96,0,24.02-14.77,39.99-36.11,39.99-8.8,0-18.5-1.94-26.56-5.97v-95.65ZM851.9,384.26c3.58,1.19,7.91,1.94,12.38,1.94,16.41,0,23.88-11.79,23.88-29.1s-8.06-27.9-19.25-27.9c-8.66,0-13.88,4.33-17.01,8.95v46.11Z"/>
      <path class="cls-2" d="M948.29,384.26c.9-3.58,2.83-11.34,4.03-14.92l7.46-23.72c1.34-4.33,3.73-11.04,5.52-14.47-2.69-.3-6.71-1.04-8.95-1.94-.75-2.24-1.19-5.07-1.19-7.61h28.5c0,2.24-.75,6.12-1.49,8.21-1.79.6-5.07,1.19-7.01,1.34l-8.5,24.77c-4.18,12.24-11.34,32.98-16.86,44.02-7.01,14.18-16.71,23.58-30.14,28.35-2.24-2.09-5.07-6.71-5.52-11.04,13.43-3.73,22.68-12.09,27.01-21.93l-24.32-63.42c-2.69-.6-5.67-1.49-7.76-2.54-.75-2.09-1.34-5.37-1.49-7.76h33.72c0,2.39-.6,5.67-1.19,7.76-2.69.75-7.46,1.49-10.89,1.79,1.79,3.28,3.88,8.36,5.37,12.53l9.4,26.11c1.19,3.28,2.69,10.74,3.28,14.47h1.04Z"/>
    </g>
  </g>
</svg>