<svg xmlns="http://www.w3.org/2000/svg" xmlns:xlink="http://www.w3.org/1999/xlink" width="500" zoomAndPan="magnify" viewBox="0 0 375 374.999991" height="500" preserveAspectRatio="xMidYMid meet" version="1.0"><defs><g/><clipPath id="aa47b2ae51"><path d="M 0 0 L 375 0 L 375 373.886719 L 0 373.886719 Z M 0 0 " clip-rule="nonzero"/></clipPath><clipPath id="c56c9b678d"><path d="M 75 0 L 300 0 C 341.421875 0 375 33.578125 375 75 L 375 298.886719 C 375 340.304688 341.421875 373.886719 300 373.886719 L 75 373.886719 C 33.578125 373.886719 0 340.304688 0 298.886719 L 0 75 C 0 33.578125 33.578125 0 75 0 Z M 75 0 " clip-rule="nonzero"/></clipPath><clipPath id="66e331aaa1"><path d="M 0.00390625 0 L 375 0 L 375 374 L 0.00390625 374 Z M 0.00390625 0 " clip-rule="nonzero"/></clipPath><clipPath id="1be4fe57e2"><path d="M 75.003906 0 L 299.996094 0 C 341.417969 0 374.996094 33.578125 374.996094 74.996094 L 374.996094 298.878906 C 374.996094 340.296875 341.417969 373.875 299.996094 373.875 L 75.003906 373.875 C 33.582031 373.875 0.00390625 340.296875 0.00390625 298.878906 L 0.00390625 74.996094 C 0.00390625 33.578125 33.582031 0 75.003906 0 Z M 75.003906 0 " clip-rule="nonzero"/></clipPath><clipPath id="6731daa052"><path d="M 95.277344 147.078125 L 279.792969 147.078125 L 279.792969 207.097656 L 95.277344 207.097656 Z M 95.277344 147.078125 " clip-rule="nonzero"/></clipPath><clipPath id="6531354990"><path d="M 125.285156 147.078125 L 249.714844 147.078125 C 266.289062 147.078125 279.722656 160.511719 279.722656 177.085938 C 279.722656 193.660156 266.289062 207.097656 249.714844 207.097656 L 125.285156 207.097656 C 108.710938 207.097656 95.277344 193.660156 95.277344 177.085938 C 95.277344 160.511719 108.710938 147.078125 125.285156 147.078125 Z M 125.285156 147.078125 " clip-rule="nonzero"/></clipPath><clipPath id="03ef96bd62"><path d="M 95.277344 179.484375 L 279.722656 179.484375 L 279.722656 207.84375 L 95.277344 207.84375 Z M 95.277344 179.484375 " clip-rule="nonzero"/></clipPath><clipPath id="5cab061779"><path d="M 95.546875 276.609375 L 280 276.609375 L 280 336.628906 L 95.546875 336.628906 Z M 95.546875 276.609375 " clip-rule="nonzero"/></clipPath><clipPath id="98019df2f7"><path d="M 125.554688 276.609375 L 249.984375 276.609375 C 266.558594 276.609375 279.992188 290.042969 279.992188 306.617188 C 279.992188 323.191406 266.558594 336.628906 249.984375 336.628906 L 125.554688 336.628906 C 108.980469 336.628906 95.546875 323.191406 95.546875 306.617188 C 95.546875 290.042969 108.980469 276.609375 125.554688 276.609375 Z M 125.554688 276.609375 " clip-rule="nonzero"/></clipPath><clipPath id="cbed1223be"><path d="M 95.277344 201.972656 L 279.722656 201.972656 L 279.722656 311.921875 L 95.277344 311.921875 Z M 95.277344 201.972656 " clip-rule="nonzero"/></clipPath><clipPath id="fc20008f65"><path d="M 87.980469 144.355469 L 286.828125 144.355469 L 286.828125 343.199219 L 87.980469 343.199219 Z M 87.980469 144.355469 " clip-rule="nonzero"/></clipPath><clipPath id="0c6b1a903c"><path d="M 125.480469 144.355469 L 249.519531 144.355469 C 270.226562 144.355469 287.015625 161.144531 287.015625 181.851562 L 287.015625 305.890625 C 287.015625 326.601562 270.226562 343.390625 249.519531 343.390625 L 125.480469 343.390625 C 104.769531 343.390625 87.980469 326.601562 87.980469 305.890625 L 87.980469 181.851562 C 87.980469 161.144531 104.769531 144.355469 125.480469 144.355469 Z M 125.480469 144.355469 " clip-rule="nonzero"/></clipPath><clipPath id="1427f10608"><path d="M 128.859375 110.644531 L 141.382812 110.644531 L 141.382812 183.535156 L 128.859375 183.535156 Z M 128.859375 110.644531 " clip-rule="nonzero"/></clipPath><clipPath id="df9db2373f"><path d="M 135.121094 110.644531 C 138.578125 110.644531 141.382812 113.445312 141.382812 116.90625 L 141.382812 177.25 C 141.382812 180.707031 138.578125 183.511719 135.121094 183.511719 C 131.664062 183.511719 128.859375 180.707031 128.859375 177.25 L 128.859375 116.90625 C 128.859375 113.445312 131.664062 110.644531 135.121094 110.644531 Z M 135.121094 110.644531 " clip-rule="nonzero"/></clipPath><clipPath id="2cc0fae695"><path d="M 233.617188 110.644531 L 246.140625 110.644531 L 246.140625 183.535156 L 233.617188 183.535156 Z M 233.617188 110.644531 " clip-rule="nonzero"/></clipPath><clipPath id="0d4fc043ab"><path d="M 239.878906 110.644531 C 243.335938 110.644531 246.140625 113.445312 246.140625 116.90625 L 246.140625 177.25 C 246.140625 180.707031 243.335938 183.511719 239.878906 183.511719 C 236.421875 183.511719 233.617188 180.707031 233.617188 177.25 L 233.617188 116.90625 C 233.617188 113.445312 236.421875 110.644531 239.878906 110.644531 Z M 239.878906 110.644531 " clip-rule="nonzero"/></clipPath><clipPath id="634b0d01b3"><path d="M 117.847656 227.035156 L 152.441406 227.035156 L 152.441406 260.710938 L 117.847656 260.710938 Z M 117.847656 227.035156 " clip-rule="nonzero"/></clipPath><clipPath id="8fdfbfa099"><path d="M 134.683594 227.035156 L 135.554688 227.035156 C 140.023438 227.035156 144.304688 228.8125 147.460938 231.96875 C 150.621094 235.125 152.394531 239.410156 152.394531 243.875 C 152.394531 248.339844 150.621094 252.621094 147.460938 255.78125 C 144.304688 258.9375 140.023438 260.710938 135.554688 260.710938 L 134.683594 260.710938 C 130.21875 260.710938 125.9375 258.9375 122.78125 255.78125 C 119.621094 252.621094 117.847656 248.339844 117.847656 243.875 C 117.847656 239.410156 119.621094 235.125 122.78125 231.96875 C 125.9375 228.8125 130.21875 227.035156 134.683594 227.035156 Z M 134.683594 227.035156 " clip-rule="nonzero"/></clipPath><clipPath id="bd41de9bb8"><path d="M 170.226562 227.035156 L 204.824219 227.035156 L 204.824219 260.710938 L 170.226562 260.710938 Z M 170.226562 227.035156 " clip-rule="nonzero"/></clipPath><clipPath id="9c5488d308"><path d="M 187.0625 227.035156 L 187.9375 227.035156 C 192.402344 227.035156 196.683594 228.8125 199.839844 231.96875 C 203 235.125 204.773438 239.410156 204.773438 243.875 C 204.773438 248.339844 203 252.621094 199.839844 255.78125 C 196.683594 258.9375 192.402344 260.710938 187.9375 260.710938 L 187.0625 260.710938 C 182.597656 260.710938 178.316406 258.9375 175.160156 255.78125 C 172 252.621094 170.226562 248.339844 170.226562 243.875 C 170.226562 239.410156 172 235.125 175.160156 231.96875 C 178.316406 228.8125 182.597656 227.035156 187.0625 227.035156 Z M 187.0625 227.035156 " clip-rule="nonzero"/></clipPath><clipPath id="90cd2fc44c"><path d="M 222.605469 227.035156 L 257.203125 227.035156 L 257.203125 260.710938 L 222.605469 260.710938 Z M 222.605469 227.035156 " clip-rule="nonzero"/></clipPath><clipPath id="6df47cdc0c"><path d="M 239.445312 227.035156 L 240.316406 227.035156 C 244.78125 227.035156 249.0625 228.8125 252.21875 231.96875 C 255.378906 235.125 257.152344 239.410156 257.152344 243.875 C 257.152344 248.339844 255.378906 252.621094 252.21875 255.78125 C 249.0625 258.9375 244.78125 260.710938 240.316406 260.710938 L 239.445312 260.710938 C 234.976562 260.710938 230.695312 258.9375 227.539062 255.78125 C 224.378906 252.621094 222.605469 248.339844 222.605469 243.875 C 222.605469 239.410156 224.378906 235.125 227.539062 231.96875 C 230.695312 228.8125 234.976562 227.035156 239.445312 227.035156 Z M 239.445312 227.035156 " clip-rule="nonzero"/></clipPath><clipPath id="0a09945d2d"><path d="M 117.847656 280.90625 L 152.441406 280.90625 L 152.441406 314.582031 L 117.847656 314.582031 Z M 117.847656 280.90625 " clip-rule="nonzero"/></clipPath><clipPath id="622e1515b5"><path d="M 134.683594 280.90625 L 135.554688 280.90625 C 140.023438 280.90625 144.304688 282.679688 147.460938 285.839844 C 150.621094 288.996094 152.394531 293.277344 152.394531 297.746094 C 152.394531 302.210938 150.621094 306.492188 147.460938 309.648438 C 144.304688 312.808594 140.023438 314.582031 135.554688 314.582031 L 134.683594 314.582031 C 130.21875 314.582031 125.9375 312.808594 122.78125 309.648438 C 119.621094 306.492188 117.847656 302.210938 117.847656 297.746094 C 117.847656 293.277344 119.621094 288.996094 122.78125 285.839844 C 125.9375 282.679688 130.21875 280.90625 134.683594 280.90625 Z M 134.683594 280.90625 " clip-rule="nonzero"/></clipPath><clipPath id="9d1e0ea83e"><path d="M 170.226562 280.90625 L 204.824219 280.90625 L 204.824219 314.582031 L 170.226562 314.582031 Z M 170.226562 280.90625 " clip-rule="nonzero"/></clipPath><clipPath id="7dc7d03c39"><path d="M 187.0625 280.90625 L 187.9375 280.90625 C 192.402344 280.90625 196.683594 282.679688 199.839844 285.839844 C 203 288.996094 204.773438 293.277344 204.773438 297.746094 C 204.773438 302.210938 203 306.492188 199.839844 309.648438 C 196.683594 312.808594 192.402344 314.582031 187.9375 314.582031 L 187.0625 314.582031 C 182.597656 314.582031 178.316406 312.808594 175.160156 309.648438 C 172 306.492188 170.226562 302.210938 170.226562 297.746094 C 170.226562 293.277344 172 288.996094 175.160156 285.839844 C 178.316406 282.679688 182.597656 280.90625 187.0625 280.90625 Z M 187.0625 280.90625 " clip-rule="nonzero"/></clipPath><clipPath id="4e250d5aec"><path d="M 222.605469 280.90625 L 257.203125 280.90625 L 257.203125 314.582031 L 222.605469 314.582031 Z M 222.605469 280.90625 " clip-rule="nonzero"/></clipPath><clipPath id="8e8284d729"><path d="M 239.445312 280.90625 L 240.316406 280.90625 C 244.78125 280.90625 249.0625 282.679688 252.21875 285.839844 C 255.378906 288.996094 257.152344 293.277344 257.152344 297.746094 C 257.152344 302.210938 255.378906 306.492188 252.21875 309.648438 C 249.0625 312.808594 244.78125 314.582031 240.316406 314.582031 L 239.445312 314.582031 C 234.976562 314.582031 230.695312 312.808594 227.539062 309.648438 C 224.378906 306.492188 222.605469 302.210938 222.605469 297.746094 C 222.605469 293.277344 224.378906 288.996094 227.539062 285.839844 C 230.695312 282.679688 234.976562 280.90625 239.445312 280.90625 Z M 239.445312 280.90625 " clip-rule="nonzero"/></clipPath><clipPath id="7eed4fc3d3"><path d="M 231.125 276.070312 L 305.644531 276.070312 L 305.644531 350.589844 L 231.125 350.589844 Z M 231.125 276.070312 " clip-rule="nonzero"/></clipPath><clipPath id="de68c14c0a"><path d="M 268.386719 276.070312 C 247.808594 276.070312 231.125 292.75 231.125 313.328125 C 231.125 333.90625 247.808594 350.589844 268.386719 350.589844 C 288.964844 350.589844 305.644531 333.90625 305.644531 313.328125 C 305.644531 292.75 288.964844 276.070312 268.386719 276.070312 Z M 268.386719 276.070312 " clip-rule="nonzero"/></clipPath><clipPath id="9f4fb602ec"><path d="M 231.125 276.070312 L 305.644531 276.070312 L 305.644531 350.585938 L 231.125 350.585938 Z M 231.125 276.070312 " clip-rule="nonzero"/></clipPath><clipPath id="173a56202c"><path d="M 268.386719 276.070312 C 247.808594 276.070312 231.125 292.75 231.125 313.328125 C 231.125 333.90625 247.808594 350.585938 268.386719 350.585938 C 288.960938 350.585938 305.644531 333.90625 305.644531 313.328125 C 305.644531 292.75 288.960938 276.070312 268.386719 276.070312 Z M 268.386719 276.070312 " clip-rule="nonzero"/></clipPath></defs><g clip-path="url(#aa47b2ae51)"><g clip-path="url(#c56c9b678d)"><path fill="#ffffff" d="M 0 0 L 375.347656 0 L 375.347656 373.886719 L 0 373.886719 Z M 0 0 " fill-opacity="1" fill-rule="nonzero"/></g></g><g clip-path="url(#66e331aaa1)"><g clip-path="url(#1be4fe57e2)"><path stroke-linecap="butt" transform="matrix(0.75, 0, 0, 0.75, 0.00515677, 0)" fill="none" stroke-linejoin="miter" d="M 99.998339 0 L 399.987942 0 C 455.217113 0 499.987949 44.770836 499.987949 99.994798 L 499.987949 398.505235 C 499.987949 453.729196 455.217113 498.500033 399.987942 498.500033 L 99.998339 498.500033 C 44.769169 498.500033 -0.00166736 453.729196 -0.00166736 398.505235 L -0.00166736 99.994798 C -0.00166736 44.770836 44.769169 0 99.998339 0 Z M 99.998339 0 " stroke="#9898b0" stroke-width="8" stroke-opacity="1" stroke-miterlimit="4"/></g></g><g clip-path="url(#6731daa052)"><g clip-path="url(#6531354990)"><path fill="#008cff" d="M 95.277344 147.078125 L 279.792969 147.078125 L 279.792969 207.097656 L 95.277344 207.097656 Z M 95.277344 147.078125 " fill-opacity="1" fill-rule="nonzero"/></g></g><g clip-path="url(#03ef96bd62)"><path fill="#008cff" d="M 95.277344 179.484375 L 279.710938 179.484375 L 279.710938 207.84375 L 95.277344 207.84375 Z M 95.277344 179.484375 " fill-opacity="1" fill-rule="nonzero"/></g><g clip-path="url(#5cab061779)"><g clip-path="url(#98019df2f7)"><path fill="#ffffff" d="M 95.546875 276.609375 L 280.0625 276.609375 L 280.0625 336.628906 L 95.546875 336.628906 Z M 95.546875 276.609375 " fill-opacity="1" fill-rule="nonzero"/></g></g><g clip-path="url(#cbed1223be)"><path fill="#ffffff" d="M 95.277344 201.972656 L 279.53125 201.972656 L 279.53125 311.921875 L 95.277344 311.921875 Z M 95.277344 201.972656 " fill-opacity="1" fill-rule="nonzero"/></g><g clip-path="url(#fc20008f65)"><g clip-path="url(#0c6b1a903c)"><path stroke-linecap="butt" transform="matrix(0.872137, 0, 0, 0.872137, 87.979568, 144.353662)" fill="none" stroke-linejoin="miter" d="M 42.998867 0.00207196 L 185.223161 0.00207196 C 208.966028 0.00207196 228.216516 19.252561 228.216516 42.995427 L 228.216516 185.219722 C 228.216516 208.967067 208.966028 228.217556 185.223161 228.217556 L 42.998867 228.217556 C 19.251521 228.217556 0.00103244 208.967067 0.00103244 185.219722 L 0.00103244 42.995427 C 0.00103244 19.252561 19.251521 0.00207196 42.998867 0.00207196 Z M 42.998867 0.00207196 " stroke="#0f1131" stroke-width="24.078785" stroke-opacity="1" stroke-miterlimit="4"/></g></g><g clip-path="url(#1427f10608)"><g clip-path="url(#df9db2373f)"><path fill="#0f1131" d="M 128.859375 110.644531 L 141.382812 110.644531 L 141.382812 183.488281 L 128.859375 183.488281 Z M 128.859375 110.644531 " fill-opacity="1" fill-rule="nonzero"/></g></g><g clip-path="url(#2cc0fae695)"><g clip-path="url(#0d4fc043ab)"><path fill="#0f1131" d="M 233.617188 110.644531 L 246.140625 110.644531 L 246.140625 183.488281 L 233.617188 183.488281 Z M 233.617188 110.644531 " fill-opacity="1" fill-rule="nonzero"/></g></g><g clip-path="url(#634b0d01b3)"><g clip-path="url(#8fdfbfa099)"><path fill="#008cff" d="M 117.847656 227.035156 L 152.441406 227.035156 L 152.441406 260.710938 L 117.847656 260.710938 Z M 117.847656 227.035156 " fill-opacity="1" fill-rule="nonzero"/></g></g><g clip-path="url(#bd41de9bb8)"><g clip-path="url(#9c5488d308)"><path fill="#008cff" d="M 170.226562 227.035156 L 204.824219 227.035156 L 204.824219 260.710938 L 170.226562 260.710938 Z M 170.226562 227.035156 " fill-opacity="1" fill-rule="nonzero"/></g></g><g clip-path="url(#90cd2fc44c)"><g clip-path="url(#6df47cdc0c)"><path fill="#008cff" d="M 222.605469 227.035156 L 257.203125 227.035156 L 257.203125 260.710938 L 222.605469 260.710938 Z M 222.605469 227.035156 " fill-opacity="1" fill-rule="nonzero"/></g></g><g clip-path="url(#0a09945d2d)"><g clip-path="url(#622e1515b5)"><path fill="#008cff" d="M 117.847656 280.90625 L 152.441406 280.90625 L 152.441406 314.582031 L 117.847656 314.582031 Z M 117.847656 280.90625 " fill-opacity="1" fill-rule="nonzero"/></g></g><g clip-path="url(#9d1e0ea83e)"><g clip-path="url(#7dc7d03c39)"><path fill="#008cff" d="M 170.226562 280.90625 L 204.824219 280.90625 L 204.824219 314.582031 L 170.226562 314.582031 Z M 170.226562 280.90625 " fill-opacity="1" fill-rule="nonzero"/></g></g><g clip-path="url(#4e250d5aec)"><g clip-path="url(#8e8284d729)"><path fill="#008cff" d="M 222.605469 280.90625 L 257.203125 280.90625 L 257.203125 314.582031 L 222.605469 314.582031 Z M 222.605469 280.90625 " fill-opacity="1" fill-rule="nonzero"/></g></g><g clip-path="url(#7eed4fc3d3)"><g clip-path="url(#de68c14c0a)"><path fill="#ffffff" d="M 231.125 276.070312 L 305.644531 276.070312 L 305.644531 350.589844 L 231.125 350.589844 Z M 231.125 276.070312 " fill-opacity="1" fill-rule="nonzero"/></g></g><g clip-path="url(#9f4fb602ec)"><g clip-path="url(#173a56202c)"><path stroke-linecap="butt" transform="matrix(0.649567, 0, 0, 0.649567, 231.12604, 276.069942)" fill="none" stroke-linejoin="miter" d="M 57.362339 0.000570578 C 25.682579 0.000570578 -0.00160064 25.678736 -0.00160064 57.358496 C -0.00160064 89.038257 25.682579 114.716422 57.362339 114.716422 C 89.036086 114.716422 114.720265 89.038257 114.720265 57.358496 C 114.720265 25.678736 89.036086 0.000570578 57.362339 0.000570578 Z M 57.362339 0.000570578 " stroke="#9835ef" stroke-width="16.164614" stroke-opacity="1" stroke-miterlimit="4"/></g></g><g fill="#9835ef" fill-opacity="1"><g transform="translate(253.005602, 327.754586)"><g><path d="M 14.09375 -28.765625 C 18.757812 -28.765625 22.320312 -27.554688 24.78125 -25.140625 C 27.238281 -22.734375 28.46875 -19.148438 28.46875 -14.390625 C 28.46875 -9.640625 27.238281 -6.050781 24.78125 -3.625 C 22.320312 -1.207031 18.757812 0 14.09375 0 L 3.734375 0 L 3.734375 -28.765625 Z M 13.75 -4.78125 C 16.71875 -4.78125 18.9375 -5.535156 20.40625 -7.046875 C 21.875 -8.566406 22.609375 -11.015625 22.609375 -14.390625 C 22.609375 -17.753906 21.875 -20.191406 20.40625 -21.703125 C 18.9375 -23.222656 16.71875 -23.984375 13.75 -23.984375 L 9.421875 -23.984375 L 9.421875 -4.78125 Z M 13.75 -4.78125 "/></g></g></g><g fill="#0f1131" fill-opacity="1"><g transform="translate(47.184442, 56.682964)"><g><path d="M 10.734375 0.375 C 8.785156 0.375 7.109375 -0.0195312 5.703125 -0.8125 C 4.304688 -1.613281 3.226562 -2.742188 2.46875 -4.203125 C 1.707031 -5.660156 1.328125 -7.390625 1.328125 -9.390625 C 1.328125 -11.335938 1.707031 -13.046875 2.46875 -14.515625 C 3.226562 -15.984375 4.296875 -17.128906 5.671875 -17.953125 C 7.046875 -18.773438 8.660156 -19.1875 10.515625 -19.1875 C 12.191406 -19.1875 13.703125 -18.832031 15.046875 -18.125 C 16.390625 -17.425781 17.453125 -16.363281 18.234375 -14.9375 C 19.023438 -13.507812 19.421875 -11.722656 19.421875 -9.578125 L 19.421875 -8.125 L 6.53125 -8.125 L 6.53125 -8.109375 C 6.53125 -6.703125 6.914062 -5.585938 7.6875 -4.765625 C 8.457031 -3.953125 9.5 -3.546875 10.8125 -3.546875 C 11.695312 -3.546875 12.457031 -3.726562 13.09375 -4.09375 C 13.738281 -4.46875 14.191406 -5.019531 14.453125 -5.75 L 19.3125 -5.421875 C 18.945312 -3.660156 18.007812 -2.253906 16.5 -1.203125 C 15 -0.148438 13.078125 0.375 10.734375 0.375 Z M 6.53125 -11.390625 L 14.484375 -11.390625 C 14.472656 -12.515625 14.109375 -13.441406 13.390625 -14.171875 C 12.679688 -14.898438 11.753906 -15.265625 10.609375 -15.265625 C 9.441406 -15.265625 8.484375 -14.882812 7.734375 -14.125 C 6.984375 -13.375 6.582031 -12.460938 6.53125 -11.390625 Z M 6.53125 -11.390625 "/></g></g></g><g fill="#0f1131" fill-opacity="1"><g transform="translate(68.735489, 56.682964)"><g><path d="M 19.765625 -18.953125 L 13.140625 0 L 7.21875 0 L 0.59375 -18.953125 L 6.140625 -18.953125 L 10.078125 -5.390625 L 10.28125 -5.390625 L 14.203125 -18.953125 Z M 19.765625 -18.953125 "/></g></g></g><g fill="#0f1131" fill-opacity="1"><g transform="translate(89.87963, 56.682964)"><g><path d="M 10.734375 0.375 C 8.785156 0.375 7.109375 -0.0195312 5.703125 -0.8125 C 4.304688 -1.613281 3.226562 -2.742188 2.46875 -4.203125 C 1.707031 -5.660156 1.328125 -7.390625 1.328125 -9.390625 C 1.328125 -11.335938 1.707031 -13.046875 2.46875 -14.515625 C 3.226562 -15.984375 4.296875 -17.128906 5.671875 -17.953125 C 7.046875 -18.773438 8.660156 -19.1875 10.515625 -19.1875 C 12.191406 -19.1875 13.703125 -18.832031 15.046875 -18.125 C 16.390625 -17.425781 17.453125 -16.363281 18.234375 -14.9375 C 19.023438 -13.507812 19.421875 -11.722656 19.421875 -9.578125 L 19.421875 -8.125 L 6.53125 -8.125 L 6.53125 -8.109375 C 6.53125 -6.703125 6.914062 -5.585938 7.6875 -4.765625 C 8.457031 -3.953125 9.5 -3.546875 10.8125 -3.546875 C 11.695312 -3.546875 12.457031 -3.726562 13.09375 -4.09375 C 13.738281 -4.46875 14.191406 -5.019531 14.453125 -5.75 L 19.3125 -5.421875 C 18.945312 -3.660156 18.007812 -2.253906 16.5 -1.203125 C 15 -0.148438 13.078125 0.375 10.734375 0.375 Z M 6.53125 -11.390625 L 14.484375 -11.390625 C 14.472656 -12.515625 14.109375 -13.441406 13.390625 -14.171875 C 12.679688 -14.898438 11.753906 -15.265625 10.609375 -15.265625 C 9.441406 -15.265625 8.484375 -14.882812 7.734375 -14.125 C 6.984375 -13.375 6.582031 -12.460938 6.53125 -11.390625 Z M 6.53125 -11.390625 "/></g></g></g><g fill="#0f1131" fill-opacity="1"><g transform="translate(111.430676, 56.682964)"><g><path d="M 7.34375 -10.953125 L 7.34375 0 L 2.09375 0 L 2.09375 -18.953125 L 7.109375 -18.953125 L 7.109375 -15.609375 L 7.328125 -15.609375 C 7.753906 -16.703125 8.457031 -17.570312 9.4375 -18.21875 C 10.425781 -18.863281 11.625 -19.1875 13.03125 -19.1875 C 15 -19.1875 16.578125 -18.550781 17.765625 -17.28125 C 18.960938 -16.007812 19.5625 -14.269531 19.5625 -12.0625 L 19.5625 0 L 14.3125 0 L 14.3125 -11.125 C 14.320312 -12.28125 14.023438 -13.1875 13.421875 -13.84375 C 12.816406 -14.5 11.988281 -14.828125 10.9375 -14.828125 C 9.875 -14.828125 9.007812 -14.488281 8.34375 -13.8125 C 7.6875 -13.132812 7.351562 -12.179688 7.34375 -10.953125 Z M 7.34375 -10.953125 "/></g></g></g><g fill="#0f1131" fill-opacity="1"><g transform="translate(133.820188, 56.682964)"><g><path d="M 12.171875 -18.953125 L 12.171875 -15 L 8.609375 -15 L 8.609375 -5.828125 C 8.609375 -5.097656 8.769531 -4.601562 9.09375 -4.34375 C 9.425781 -4.09375 9.859375 -3.96875 10.390625 -3.96875 C 10.628906 -3.96875 10.875 -3.988281 11.125 -4.03125 C 11.375 -4.082031 11.5625 -4.117188 11.6875 -4.140625 L 12.515625 -0.234375 C 12.253906 -0.148438 11.882812 -0.0546875 11.40625 0.046875 C 10.925781 0.160156 10.347656 0.234375 9.671875 0.265625 C 7.765625 0.335938 6.234375 -0.078125 5.078125 -0.984375 C 3.921875 -1.890625 3.347656 -3.269531 3.359375 -5.125 L 3.359375 -15 L 0.765625 -15 L 0.765625 -18.953125 L 3.359375 -18.953125 L 3.359375 -23.484375 L 8.609375 -23.484375 L 8.609375 -18.953125 Z M 12.171875 -18.953125 "/></g></g></g><g fill="#0f1131" fill-opacity="1"><g transform="translate(148.108588, 56.682964)"><g><path d="M 17.859375 -13.546875 L 13.046875 -13.25 C 12.921875 -13.851562 12.585938 -14.375 12.046875 -14.8125 C 11.515625 -15.25 10.789062 -15.46875 9.875 -15.46875 C 9.0625 -15.46875 8.375 -15.296875 7.8125 -14.953125 C 7.25 -14.609375 6.972656 -14.15625 6.984375 -13.59375 C 6.972656 -13.144531 7.148438 -12.765625 7.515625 -12.453125 C 7.878906 -12.140625 8.503906 -11.882812 9.390625 -11.6875 L 12.8125 -11 C 16.457031 -10.25 18.285156 -8.539062 18.296875 -5.875 C 18.296875 -4.632812 17.929688 -3.546875 17.203125 -2.609375 C 16.472656 -1.671875 15.472656 -0.9375 14.203125 -0.40625 C 12.941406 0.113281 11.492188 0.375 9.859375 0.375 C 7.347656 0.375 5.347656 -0.148438 3.859375 -1.203125 C 2.367188 -2.253906 1.503906 -3.679688 1.265625 -5.484375 L 6.421875 -5.765625 C 6.585938 -4.984375 6.96875 -4.394531 7.5625 -4 C 8.164062 -3.613281 8.9375 -3.421875 9.875 -3.421875 C 10.789062 -3.421875 11.53125 -3.597656 12.09375 -3.953125 C 12.65625 -4.316406 12.941406 -4.78125 12.953125 -5.34375 C 12.929688 -6.28125 12.117188 -6.910156 10.515625 -7.234375 L 7.234375 -7.875 C 3.566406 -8.613281 1.742188 -10.421875 1.765625 -13.296875 C 1.753906 -15.117188 2.484375 -16.554688 3.953125 -17.609375 C 5.421875 -18.660156 7.367188 -19.1875 9.796875 -19.1875 C 12.191406 -19.1875 14.078125 -18.679688 15.453125 -17.671875 C 16.828125 -16.660156 17.628906 -15.285156 17.859375 -13.546875 Z M 17.859375 -13.546875 "/></g></g></g><g fill="#0f1131" fill-opacity="1"><g transform="translate(168.414251, 56.682964)"><g/></g></g><g fill="#0f1131" fill-opacity="1"><g transform="translate(177.264905, 56.682964)"><g><path d="M 2.09375 0 L 2.09375 -18.953125 L 7.109375 -18.953125 L 7.109375 -15.609375 L 7.328125 -15.609375 C 7.722656 -16.722656 8.378906 -17.597656 9.296875 -18.234375 C 10.222656 -18.867188 11.328125 -19.1875 12.609375 -19.1875 C 13.910156 -19.1875 15.015625 -18.863281 15.921875 -18.21875 C 16.835938 -17.570312 17.445312 -16.703125 17.75 -15.609375 L 17.953125 -15.609375 C 18.335938 -16.691406 19.035156 -17.554688 20.046875 -18.203125 C 21.066406 -18.859375 22.269531 -19.1875 23.65625 -19.1875 C 25.425781 -19.1875 26.863281 -18.625 27.96875 -17.5 C 29.070312 -16.382812 29.625 -14.796875 29.625 -12.734375 L 29.625 0 L 24.390625 0 L 24.390625 -11.703125 C 24.390625 -12.753906 24.109375 -13.539062 23.546875 -14.0625 C 22.984375 -14.59375 22.285156 -14.859375 21.453125 -14.859375 C 20.492188 -14.859375 19.75 -14.550781 19.21875 -13.9375 C 18.6875 -13.332031 18.421875 -12.539062 18.421875 -11.5625 L 18.421875 0 L 13.328125 0 L 13.328125 -11.8125 C 13.328125 -12.738281 13.0625 -13.476562 12.53125 -14.03125 C 12 -14.582031 11.300781 -14.859375 10.4375 -14.859375 C 9.5625 -14.859375 8.828125 -14.539062 8.234375 -13.90625 C 7.640625 -13.269531 7.34375 -12.425781 7.34375 -11.375 L 7.34375 0 Z M 2.09375 0 "/></g></g></g><g fill="#0f1131" fill-opacity="1"><g transform="translate(209.728415, 56.682964)"><g><path d="M 10.65625 0.375 C 8.738281 0.375 7.082031 -0.03125 5.6875 -0.84375 C 4.300781 -1.664062 3.226562 -2.8125 2.46875 -4.28125 C 1.707031 -5.75 1.328125 -7.457031 1.328125 -9.40625 C 1.328125 -11.351562 1.707031 -13.0625 2.46875 -14.53125 C 3.226562 -16 4.300781 -17.140625 5.6875 -17.953125 C 7.082031 -18.773438 8.738281 -19.1875 10.65625 -19.1875 C 12.570312 -19.1875 14.226562 -18.773438 15.625 -17.953125 C 17.019531 -17.140625 18.09375 -16 18.84375 -14.53125 C 19.601562 -13.0625 19.984375 -11.351562 19.984375 -9.40625 C 19.984375 -7.457031 19.601562 -5.75 18.84375 -4.28125 C 18.09375 -2.8125 17.019531 -1.664062 15.625 -0.84375 C 14.226562 -0.03125 12.570312 0.375 10.65625 0.375 Z M 10.6875 -3.703125 C 11.976562 -3.703125 12.957031 -4.242188 13.625 -5.328125 C 14.300781 -6.410156 14.640625 -7.78125 14.640625 -9.4375 C 14.640625 -11.09375 14.300781 -12.460938 13.625 -13.546875 C 12.957031 -14.640625 11.976562 -15.1875 10.6875 -15.1875 C 9.363281 -15.1875 8.363281 -14.640625 7.6875 -13.546875 C 7.007812 -12.460938 6.671875 -11.09375 6.671875 -9.4375 C 6.671875 -7.78125 7.007812 -6.410156 7.6875 -5.328125 C 8.363281 -4.242188 9.363281 -3.703125 10.6875 -3.703125 Z M 10.6875 -3.703125 "/></g></g></g><g fill="#0f1131" fill-opacity="1"><g transform="translate(231.834324, 56.682964)"><g><path d="M 9.078125 0.3125 C 7.640625 0.3125 6.335938 -0.0546875 5.171875 -0.796875 C 4.015625 -1.546875 3.09375 -2.644531 2.40625 -4.09375 C 1.726562 -5.550781 1.390625 -7.335938 1.390625 -9.453125 C 1.390625 -11.617188 1.738281 -13.421875 2.4375 -14.859375 C 3.144531 -16.304688 4.082031 -17.390625 5.25 -18.109375 C 6.414062 -18.828125 7.6875 -19.1875 9.0625 -19.1875 C 10.125 -19.1875 11.007812 -19.007812 11.71875 -18.65625 C 12.4375 -18.300781 13.015625 -17.859375 13.453125 -17.328125 C 13.890625 -16.804688 14.222656 -16.285156 14.453125 -15.765625 L 14.609375 -15.765625 L 14.609375 -25.265625 L 19.859375 -25.265625 L 19.859375 0 L 14.671875 0 L 14.671875 -3.03125 L 14.453125 -3.03125 C 14.210938 -2.507812 13.863281 -1.988281 13.40625 -1.46875 C 12.957031 -0.957031 12.378906 -0.53125 11.671875 -0.1875 C 10.960938 0.144531 10.097656 0.3125 9.078125 0.3125 Z M 10.75 -3.875 C 12.007812 -3.875 12.988281 -4.382812 13.6875 -5.40625 C 14.382812 -6.425781 14.734375 -7.78125 14.734375 -9.46875 C 14.734375 -11.164062 14.382812 -12.515625 13.6875 -13.515625 C 13 -14.515625 12.019531 -15.015625 10.75 -15.015625 C 9.445312 -15.015625 8.457031 -14.5 7.78125 -13.46875 C 7.101562 -12.445312 6.765625 -11.113281 6.765625 -9.46875 C 6.765625 -7.820312 7.101562 -6.476562 7.78125 -5.4375 C 8.46875 -4.394531 9.457031 -3.875 10.75 -3.875 Z M 10.75 -3.875 "/></g></g></g><g fill="#0f1131" fill-opacity="1"><g transform="translate(254.692409, 56.682964)"><g><path d="M 14.25 -8.0625 L 14.25 -18.953125 L 19.5 -18.953125 L 19.5 0 L 14.453125 0 L 14.453125 -3.4375 L 14.265625 -3.4375 C 13.835938 -2.332031 13.125 -1.441406 12.125 -0.765625 C 11.132812 -0.0859375 9.929688 0.25 8.515625 0.25 C 6.609375 0.25 5.0625 -0.382812 3.875 -1.65625 C 2.695312 -2.925781 2.101562 -4.664062 2.09375 -6.875 L 2.09375 -18.953125 L 7.34375 -18.953125 L 7.34375 -7.8125 C 7.351562 -6.695312 7.65625 -5.8125 8.25 -5.15625 C 8.84375 -4.507812 9.632812 -4.1875 10.625 -4.1875 C 11.570312 -4.1875 12.414062 -4.515625 13.15625 -5.171875 C 13.894531 -5.835938 14.257812 -6.800781 14.25 -8.0625 Z M 14.25 -8.0625 "/></g></g></g><g fill="#0f1131" fill-opacity="1"><g transform="translate(277.081926, 56.682964)"><g><path d="M 7.34375 -25.265625 L 7.34375 0 L 2.09375 0 L 2.09375 -25.265625 Z M 7.34375 -25.265625 "/></g></g></g><g fill="#0f1131" fill-opacity="1"><g transform="translate(287.325921, 56.682964)"><g><path d="M 10.734375 0.375 C 8.785156 0.375 7.109375 -0.0195312 5.703125 -0.8125 C 4.304688 -1.613281 3.226562 -2.742188 2.46875 -4.203125 C 1.707031 -5.660156 1.328125 -7.390625 1.328125 -9.390625 C 1.328125 -11.335938 1.707031 -13.046875 2.46875 -14.515625 C 3.226562 -15.984375 4.296875 -17.128906 5.671875 -17.953125 C 7.046875 -18.773438 8.660156 -19.1875 10.515625 -19.1875 C 12.191406 -19.1875 13.703125 -18.832031 15.046875 -18.125 C 16.390625 -17.425781 17.453125 -16.363281 18.234375 -14.9375 C 19.023438 -13.507812 19.421875 -11.722656 19.421875 -9.578125 L 19.421875 -8.125 L 6.53125 -8.125 L 6.53125 -8.109375 C 6.53125 -6.703125 6.914062 -5.585938 7.6875 -4.765625 C 8.457031 -3.953125 9.5 -3.546875 10.8125 -3.546875 C 11.695312 -3.546875 12.457031 -3.726562 13.09375 -4.09375 C 13.738281 -4.46875 14.191406 -5.019531 14.453125 -5.75 L 19.3125 -5.421875 C 18.945312 -3.660156 18.007812 -2.253906 16.5 -1.203125 C 15 -0.148438 13.078125 0.375 10.734375 0.375 Z M 6.53125 -11.390625 L 14.484375 -11.390625 C 14.472656 -12.515625 14.109375 -13.441406 13.390625 -14.171875 C 12.679688 -14.898438 11.753906 -15.265625 10.609375 -15.265625 C 9.441406 -15.265625 8.484375 -14.882812 7.734375 -14.125 C 6.984375 -13.375 6.582031 -12.460938 6.53125 -11.390625 Z M 6.53125 -11.390625 "/></g></g></g><g fill="#0f1131" fill-opacity="1"><g transform="translate(308.876976, 56.682964)"><g><path d="M 17.859375 -13.546875 L 13.046875 -13.25 C 12.921875 -13.851562 12.585938 -14.375 12.046875 -14.8125 C 11.515625 -15.25 10.789062 -15.46875 9.875 -15.46875 C 9.0625 -15.46875 8.375 -15.296875 7.8125 -14.953125 C 7.25 -14.609375 6.972656 -14.15625 6.984375 -13.59375 C 6.972656 -13.144531 7.148438 -12.765625 7.515625 -12.453125 C 7.878906 -12.140625 8.503906 -11.882812 9.390625 -11.6875 L 12.8125 -11 C 16.457031 -10.25 18.285156 -8.539062 18.296875 -5.875 C 18.296875 -4.632812 17.929688 -3.546875 17.203125 -2.609375 C 16.472656 -1.671875 15.472656 -0.9375 14.203125 -0.40625 C 12.941406 0.113281 11.492188 0.375 9.859375 0.375 C 7.347656 0.375 5.347656 -0.148438 3.859375 -1.203125 C 2.367188 -2.253906 1.503906 -3.679688 1.265625 -5.484375 L 6.421875 -5.765625 C 6.585938 -4.984375 6.96875 -4.394531 7.5625 -4 C 8.164062 -3.613281 8.9375 -3.421875 9.875 -3.421875 C 10.789062 -3.421875 11.53125 -3.597656 12.09375 -3.953125 C 12.65625 -4.316406 12.941406 -4.78125 12.953125 -5.34375 C 12.929688 -6.28125 12.117188 -6.910156 10.515625 -7.234375 L 7.234375 -7.875 C 3.566406 -8.613281 1.742188 -10.421875 1.765625 -13.296875 C 1.753906 -15.117188 2.484375 -16.554688 3.953125 -17.609375 C 5.421875 -18.660156 7.367188 -19.1875 9.796875 -19.1875 C 12.191406 -19.1875 14.078125 -18.679688 15.453125 -17.671875 C 16.828125 -16.660156 17.628906 -15.285156 17.859375 -13.546875 Z M 17.859375 -13.546875 "/></g></g></g><g fill="#9835ef" fill-opacity="1"><g transform="translate(114.665548, 105.456255)"><g><path d="M 14.609375 -22.21875 L 14.609375 -17.59375 L 10.203125 -17.59375 L 10.203125 0 L 4.03125 0 L 4.03125 -17.59375 L 0.890625 -17.59375 L 0.890625 -22.21875 L 4.03125 -22.21875 L 4.03125 -23.828125 C 4.03125 -26.242188 4.722656 -28.046875 6.109375 -29.234375 C 7.492188 -30.421875 9.234375 -31.015625 11.328125 -31.015625 C 12.273438 -31.015625 13.140625 -30.941406 13.921875 -30.796875 C 14.710938 -30.648438 15.300781 -30.519531 15.6875 -30.40625 L 14.59375 -25.78125 C 14.351562 -25.851562 14.050781 -25.921875 13.6875 -25.984375 C 13.332031 -26.054688 12.972656 -26.09375 12.609375 -26.09375 C 11.703125 -26.09375 11.070312 -25.882812 10.71875 -25.46875 C 10.375 -25.050781 10.203125 -24.460938 10.203125 -23.703125 L 10.203125 -22.21875 Z M 14.609375 -22.21875 "/></g></g></g><g fill="#9835ef" fill-opacity="1"><g transform="translate(131.509748, 105.456255)"><g><path d="M 12.5 0.4375 C 10.25 0.4375 8.304688 -0.0390625 6.671875 -1 C 5.035156 -1.957031 3.773438 -3.296875 2.890625 -5.015625 C 2.003906 -6.742188 1.5625 -8.742188 1.5625 -11.015625 C 1.5625 -13.316406 2.003906 -15.328125 2.890625 -17.046875 C 3.773438 -18.765625 5.035156 -20.101562 6.671875 -21.0625 C 8.304688 -22.03125 10.25 -22.515625 12.5 -22.515625 C 14.75 -22.515625 16.6875 -22.03125 18.3125 -21.0625 C 19.945312 -20.101562 21.207031 -18.765625 22.09375 -17.046875 C 22.988281 -15.328125 23.4375 -13.316406 23.4375 -11.015625 C 23.4375 -8.742188 22.988281 -6.742188 22.09375 -5.015625 C 21.207031 -3.296875 19.945312 -1.957031 18.3125 -1 C 16.6875 -0.0390625 14.75 0.4375 12.5 0.4375 Z M 12.53125 -4.34375 C 14.050781 -4.34375 15.203125 -4.976562 15.984375 -6.25 C 16.773438 -7.519531 17.171875 -9.125 17.171875 -11.0625 C 17.171875 -13 16.773438 -14.609375 15.984375 -15.890625 C 15.203125 -17.171875 14.050781 -17.8125 12.53125 -17.8125 C 10.976562 -17.8125 9.804688 -17.171875 9.015625 -15.890625 C 8.222656 -14.609375 7.828125 -13 7.828125 -11.0625 C 7.828125 -9.125 8.222656 -7.519531 9.015625 -6.25 C 9.804688 -4.976562 10.976562 -4.34375 12.53125 -4.34375 Z M 12.53125 -4.34375 "/></g></g></g><g fill="#9835ef" fill-opacity="1"><g transform="translate(157.435589, 105.456255)"><g><path d="M 2.453125 0 L 2.453125 -22.21875 L 8.4375 -22.21875 L 8.4375 -18.34375 L 8.671875 -18.34375 C 9.066406 -19.71875 9.738281 -20.757812 10.6875 -21.46875 C 11.644531 -22.175781 12.75 -22.53125 14 -22.53125 C 14.601562 -22.53125 15.160156 -22.457031 15.671875 -22.3125 C 16.179688 -22.175781 16.640625 -21.984375 17.046875 -21.734375 L 15.1875 -16.640625 C 14.894531 -16.785156 14.578125 -16.90625 14.234375 -17 C 13.898438 -17.101562 13.519531 -17.15625 13.09375 -17.15625 C 11.84375 -17.15625 10.785156 -16.726562 9.921875 -15.875 C 9.066406 -15.03125 8.632812 -13.929688 8.625 -12.578125 L 8.625 0 Z M 2.453125 0 "/></g></g></g><g fill="#9835ef" fill-opacity="1"><g transform="translate(175.827131, 105.456255)"><g/></g></g><g fill="#9835ef" fill-opacity="1"><g transform="translate(186.207162, 105.456255)"><g><path d="M 10.640625 0.359375 C 8.953125 0.359375 7.425781 -0.0703125 6.0625 -0.9375 C 4.707031 -1.8125 3.628906 -3.097656 2.828125 -4.796875 C 2.035156 -6.503906 1.640625 -8.597656 1.640625 -11.078125 C 1.640625 -13.628906 2.050781 -15.75 2.875 -17.4375 C 3.695312 -19.132812 4.789062 -20.40625 6.15625 -21.25 C 7.519531 -22.09375 9.007812 -22.515625 10.625 -22.515625 C 11.875 -22.515625 12.914062 -22.300781 13.75 -21.875 C 14.582031 -21.457031 15.253906 -20.9375 15.765625 -20.3125 C 16.285156 -19.695312 16.679688 -19.085938 16.953125 -18.484375 L 17.140625 -18.484375 L 17.140625 -29.625 L 23.296875 -29.625 L 23.296875 0 L 17.21875 0 L 17.21875 -3.5625 L 16.953125 -3.5625 C 16.671875 -2.9375 16.265625 -2.320312 15.734375 -1.71875 C 15.203125 -1.125 14.519531 -0.628906 13.6875 -0.234375 C 12.851562 0.160156 11.835938 0.359375 10.640625 0.359375 Z M 12.59375 -4.546875 C 14.082031 -4.546875 15.234375 -5.144531 16.046875 -6.34375 C 16.859375 -7.539062 17.265625 -9.128906 17.265625 -11.109375 C 17.265625 -13.097656 16.859375 -14.675781 16.046875 -15.84375 C 15.242188 -17.019531 14.09375 -17.609375 12.59375 -17.609375 C 11.070312 -17.609375 9.910156 -17.003906 9.109375 -15.796875 C 8.316406 -14.597656 7.921875 -13.035156 7.921875 -11.109375 C 7.921875 -9.171875 8.320312 -7.59375 9.125 -6.375 C 9.925781 -5.15625 11.082031 -4.546875 12.59375 -4.546875 Z M 12.59375 -4.546875 "/></g></g></g><g fill="#9835ef" fill-opacity="1"><g transform="translate(213.01514, 105.456255)"><g><path d="M 2.453125 0 L 2.453125 -22.21875 L 8.625 -22.21875 L 8.625 0 Z M 5.5625 -25.078125 C 4.65625 -25.078125 3.875 -25.382812 3.21875 -26 C 2.5625 -26.613281 2.234375 -27.347656 2.234375 -28.203125 C 2.234375 -29.066406 2.5625 -29.800781 3.21875 -30.40625 C 3.875 -31.007812 4.65625 -31.3125 5.5625 -31.3125 C 6.476562 -31.3125 7.257812 -31.007812 7.90625 -30.40625 C 8.5625 -29.800781 8.890625 -29.066406 8.890625 -28.203125 C 8.890625 -27.347656 8.5625 -26.613281 7.90625 -26 C 7.257812 -25.382812 6.476562 -25.078125 5.5625 -25.078125 Z M 5.5625 -25.078125 "/></g></g></g><g fill="#9835ef" fill-opacity="1"><g transform="translate(225.029295, 105.456255)"><g><path d="M 23.171875 -22.21875 L 15.40625 0 L 8.46875 0 L 0.6875 -22.21875 L 7.203125 -22.21875 L 11.8125 -6.328125 L 12.046875 -6.328125 L 16.65625 -22.21875 Z M 23.171875 -22.21875 "/></g></g></g><g fill="#9835ef" fill-opacity="1"><g transform="translate(249.827165, 105.456255)"><g><path d="M 2.453125 0 L 2.453125 -22.21875 L 8.625 -22.21875 L 8.625 0 Z M 5.5625 -25.078125 C 4.65625 -25.078125 3.875 -25.382812 3.21875 -26 C 2.5625 -26.613281 2.234375 -27.347656 2.234375 -28.203125 C 2.234375 -29.066406 2.5625 -29.800781 3.21875 -30.40625 C 3.875 -31.007812 4.65625 -31.3125 5.5625 -31.3125 C 6.476562 -31.3125 7.257812 -31.007812 7.90625 -30.40625 C 8.5625 -29.800781 8.890625 -29.066406 8.890625 -28.203125 C 8.890625 -27.347656 8.5625 -26.613281 7.90625 -26 C 7.257812 -25.382812 6.476562 -25.078125 5.5625 -25.078125 Z M 5.5625 -25.078125 "/></g></g></g></svg>