<?xml version="1.0" encoding="UTF-8" standalone="no"?><!DOCTYPE svg PUBLIC "-//W3C//DTD SVG 1.1//EN" "http://www.w3.org/Graphics/SVG/1.1/DTD/svg11.dtd"><svg width="100%" height="100%" viewBox="0 0 16 16" version="1.1" xmlns="http://www.w3.org/2000/svg" xmlns:xlink="http://www.w3.org/1999/xlink" xml:space="preserve" xmlns:serif="http://www.serif.com/" style="fill-rule:evenodd;clip-rule:evenodd;stroke-linecap:square;stroke-linejoin:round;stroke-miterlimit:1.5;"><g id="icon"><path d="M14.854,4.143c0,-1.054 -0.856,-1.911 -1.911,-1.911l-10.526,0c-1.055,0 -1.911,0.857 -1.911,1.911l0,8.92c0,1.055 0.856,1.912 1.911,1.912l10.526,0c1.055,0 1.911,-0.857 1.911,-1.912l0,-8.92Z" style="fill:#fff;"/><clipPath id="_clip1"><path d="M14.854,4.143c0,-1.054 -0.856,-1.911 -1.911,-1.911l-10.526,0c-1.055,0 -1.911,0.857 -1.911,1.911l0,8.92c0,1.055 0.856,1.912 1.911,1.912l10.526,0c1.055,0 1.911,-0.857 1.911,-1.912l0,-8.92Z"/></clipPath><g clip-path="url(#_clip1)"><rect x="0.506" y="2.232" width="14.349" height="3.009" style="fill:url(#_Linear2);"/></g><path d="M14.854,4.143c0,-1.054 -0.856,-1.911 -1.911,-1.911l-10.526,0c-1.055,0 -1.911,0.857 -1.911,1.911l0,8.92c0,1.055 0.856,1.912 1.911,1.912l10.526,0c1.055,0 1.911,-0.857 1.911,-1.912l0,-8.92Z" style="fill:none;stroke:#010051;stroke-width:0.64px;"/><path d="M4.278,0.461c0,-0.24 -0.195,-0.436 -0.435,-0.436c-0.241,0 -0.436,0.196 -0.436,0.436l0,3.542c0,0.241 0.195,0.436 0.436,0.436c0.24,0 0.435,-0.195 0.435,-0.436l0,-3.542Z" style="fill:#010051;"/><path d="M11.953,0.461c0,-0.24 -0.195,-0.436 -0.436,-0.436c-0.24,0 -0.435,0.196 -0.435,0.436l0,3.542c0,0.241 0.195,0.436 0.435,0.436c0.241,0 0.436,-0.195 0.436,-0.436l0,-3.542Z" style="fill:#010051;"/><g id="grid-elementor" serif:id="grid elementor"><path d="M12.649,11.492c0,-0.312 -0.254,-0.566 -0.566,-0.566l-1.131,0c-0.313,0 -0.566,0.254 -0.566,0.566l0,1.131c0,0.313 0.253,0.566 0.566,0.566l1.131,0c0.312,0 0.566,-0.253 0.566,-0.566l0,-1.131Z" style="fill:url(#_Linear3);"/><path d="M8.812,11.492c0,-0.312 -0.254,-0.566 -0.566,-0.566l-1.132,0c-0.312,0 -0.566,0.254 -0.566,0.566l0,1.131c0,0.313 0.254,0.566 0.566,0.566l1.132,0c0.312,0 0.566,-0.253 0.566,-0.566l0,-1.131Z" style="fill:url(#_Linear4);"/><path d="M4.974,11.492c0,-0.312 -0.253,-0.566 -0.566,-0.566l-1.131,0c-0.312,0 -0.566,0.254 -0.566,0.566l0,1.131c0,0.313 0.254,0.566 0.566,0.566l1.131,0c0.313,0 0.566,-0.253 0.566,-0.566l0,-1.131Z" style="fill:url(#_Linear5);"/><path d="M12.649,7.374c0,-0.312 -0.254,-0.566 -0.566,-0.566l-1.131,0c-0.313,0 -0.566,0.254 -0.566,0.566l0,1.132c0,0.312 0.253,0.565 0.566,0.565l1.131,0c0.312,0 0.566,-0.253 0.566,-0.565l0,-1.132Z" style="fill:url(#_Linear6);"/><path d="M8.812,7.374c0,-0.312 -0.254,-0.566 -0.566,-0.566l-1.132,0c-0.312,0 -0.566,0.254 -0.566,0.566l0,1.132c0,0.312 0.254,0.565 0.566,0.565l1.132,0c0.312,0 0.566,-0.253 0.566,-0.565l0,-1.132Z" style="fill:url(#_Linear7);"/><path d="M4.974,7.374c0,-0.312 -0.253,-0.566 -0.566,-0.566l-1.131,0c-0.312,0 -0.566,0.254 -0.566,0.566l0,1.132c0,0.312 0.254,0.565 0.566,0.565l1.131,0c0.313,0 0.566,-0.253 0.566,-0.565l0,-1.132Z" style="fill:url(#_Linear8);"/></g></g><defs><linearGradient id="_Linear2" x1="0" y1="0" x2="1" y2="0" gradientUnits="userSpaceOnUse" gradientTransform="matrix(0.03,2.60324,-2.60324,0.03,7.37474,2.63754)"><stop offset="0" style="stop-color:#f26798;stop-opacity:1"/><stop offset="1" style="stop-color:#fff;stop-opacity:1"/></linearGradient><linearGradient id="_Linear3" x1="0" y1="0" x2="1" y2="0" gradientUnits="userSpaceOnUse" gradientTransform="matrix(-1.845,1.77874,-1.77874,-1.845,12.3922,11.1413)"><stop offset="0" style="stop-color:#eb2a5b;stop-opacity:1"/><stop offset="1" style="stop-color:#424665;stop-opacity:1"/></linearGradient><linearGradient id="_Linear4" x1="0" y1="0" x2="1" y2="0" gradientUnits="userSpaceOnUse" gradientTransform="matrix(-1.845,1.77874,-1.77874,-1.845,8.55477,11.1413)"><stop offset="0" style="stop-color:#eb2a5b;stop-opacity:1"/><stop offset="1" style="stop-color:#424665;stop-opacity:1"/></linearGradient><linearGradient id="_Linear5" x1="0" y1="0" x2="1" y2="0" gradientUnits="userSpaceOnUse" gradientTransform="matrix(-1.845,1.77874,-1.77874,-1.845,4.71731,11.1413)"><stop offset="0" style="stop-color:#eb2a5b;stop-opacity:1"/><stop offset="1" style="stop-color:#424665;stop-opacity:1"/></linearGradient><linearGradient id="_Linear6" x1="0" y1="0" x2="1" y2="0" gradientUnits="userSpaceOnUse" gradientTransform="matrix(-1.845,1.77874,-1.77874,-1.845,12.3922,7.02356)"><stop offset="0" style="stop-color:#eb2a5b;stop-opacity:1"/><stop offset="1" style="stop-color:#424665;stop-opacity:1"/></linearGradient><linearGradient id="_Linear7" x1="0" y1="0" x2="1" y2="0" gradientUnits="userSpaceOnUse" gradientTransform="matrix(-1.845,1.77874,-1.77874,-1.845,8.55477,7.02356)"><stop offset="0" style="stop-color:#eb2a5b;stop-opacity:1"/><stop offset="1" style="stop-color:#424665;stop-opacity:1"/></linearGradient><linearGradient id="_Linear8" x1="0" y1="0" x2="1" y2="0" gradientUnits="userSpaceOnUse" gradientTransform="matrix(-1.845,1.77874,-1.77874,-1.845,4.71731,7.02356)"><stop offset="0" style="stop-color:#eb2a5b;stop-opacity:1"/><stop offset="1" style="stop-color:#424665;stop-opacity:1"/></linearGradient></defs></svg>